FILE "Battlecorps & SoulStar (demo) (1994)(Core Design)(EU)(en).img" BINARY
  TRACK 01 MODE1/2352
    INDEX 01 00:00:00
  TRACK 02 AUDIO
    PREGAP 00:02:00
    INDEX 01 00:20:54
  TRACK 03 AUDIO
    INDEX 01 06:38:40
  TRACK 04 AUDIO
    INDEX 01 10:43:21
  TRACK 05 AUDIO
    INDEX 01 15:56:59
